<?xml version="1.0" encoding="utf-8"?>
<!-- Generator: Adobe Illustrator 18.1.1, SVG Export Plug-In . SVG Version: 6.00 Build 0)  -->
<svg version="1.1" id="Layer_1" xmlns="http://www.w3.org/2000/svg" xmlns:xlink="http://www.w3.org/1999/xlink" x="0px" y="0px"
	 viewBox="0 0 3000 3000" enable-background="new 0 0 3000 3000" xml:space="preserve">
<g>
	<rect fill="#4348D6" width="3000" height="3000"/>
	<g>
		<path fill="#3539A8" d="M2823.7,2536.5c-0.3-0.1-0.6-0.1-1.1-0.1c-39.2,10.8-177.3,48.2-302.1,73.6
			c124.8-25.4,262.8-62.8,302.1-73.6c-5.7-0.6-14.4,0.2-20.3,1.8c-0.8,0.2-81,22.7-176.7,45.5c-55.8,13.3-105.8,24-148.5,31.9
			c-51.1,9.5-90.9,14.7-118.2,15.6c-20.1,0.6-33.5-1.1-40.8-5.5c-7-4.2-3-11.7,11.8-22.3c13.9-10,37-22.7,70.6-38.7
			c62.7-29.9,152.2-66.5,238.6-101.9c77-31.5,149.6-61.2,204.5-86.5c63.4-29.1,92-47.2,90.3-57c-1.9-11-18.1-16.4-48.2-16.1
			c-33.6,0.3-81.3,7.9-142.2,22.6c-25.8,6.2-48.4,12.4-62.5,16.4h-27.9l28.8-16.6h6.7c14.6,0,31.6-3,38-6.6l40-23.1
			c6.3-3.6-0.4-6.6-15-6.6h-6.7l28.6-16.5h2.9h0.1c8.4,0,17.4-0.8,25.3-2.2c7.9-1.4,14.5-3.2,18.2-5.3c7.2-4.2-0.5-7.6-17.2-7.6
			h-0.1h-22.1h-22.3c-8.3,0-17.4,0.8-25.3,2.2s-14.5,3.2-18.2,5.3c-7.2,4.2,0.5,7.6,17.2,7.6h3l-28.6,16.5h-6.7
			c-14.6,0-31.6,3-38,6.6l-8.8,5.1h-56.2c7.1-7.6,2.2-14.4-14.5-19.3c-15.3-4.5-39-6.9-68.4-6.9c-63.2,0-135.7,11.3-173.6,26.2
			h-127.6l0.8-0.4c5.9-3.4-0.3-6.2-14-6.2h-5.5l34.4-19.9l34.3-7.7l0,0l18.7-10.8H2215l15.7-9.1h116c5.6,0,11.7-0.6,17-1.5
			s9.8-2.2,12.2-3.6l0,0l0,0c4.8-2.8-0.3-5.1-11.6-5.1h-151.8l-0.1,0.1H2059c-5.6,0-11.7,0.6-17,1.5s-9.8,2.2-12.2,3.6
			c-4.8,2.8,0.3,5.1,11.5,5.1h116l-15.7,9.1h-66.4l-18.7,10.8l7.8,7.7l-34.4,19.9h-5.6c-13.6,0-29.5,2.8-35.4,6.2l-4.5,2.6h-35.1
			l1-0.5c4.2-2.4-0.3-4.4-10.1-4.4h-1.3c-9.8,0-21.3,2-25.5,4.4l-8.5,4.9l0,0l-8.4,4.8c-4.2,2.4,0.3,4.4,10.1,4.4h1.3
			c9.8,0,21.3-2,25.5-4.4l0,0l0,0l0.9-0.5h35.1l-4.5,2.6c-5.9,3.4,0.3,6.2,14,6.2h88.5l0,0h-82.9l-22.9,13.2H1950
			c-10.3,0-22.3,2.1-26.8,4.7l-35.8,20.7l0,0c-133.7,6.6-272.3,33.7-328.6,66.2l-767.3,443c-21.8,12.6-28.4,24.4-22,34.5
			c2.8,4.5,8.2,8.6,16.1,12.4c27.1,12.9,82.7,20.9,159.8,20.9h109.8c149.8,0,323.9-30.3,388.7-67.8l767.3-443
			c0.4-0.2,0.8-0.4,1.2-0.7c1.1-0.7,2.2-1.3,3.2-2c3.1-2,5.9-3.9,8.2-5.8c35.4-28.7-10.6-51.8-111.7-57.8l0,0l35.8-20.7l0,0
			c4.5-2.6-0.3-4.7-10.6-4.7h-11.5l22.8-13.2h-0.1l0,0h5.6c13.6,0,29.5-2.7,35.4-6.2l0.7-0.4h127.6c-7.1,7.6-2.1,14.5,14.6,19.4
			c15.4,4.5,38.9,6.8,68.2,6.8c63.3,0,135.8-11.3,173.6-26.2h56.1l-8.8,5.1c-6.3,3.6,0.4,6.6,15,6.6h6.7l-28.8,16.6h-108.8
			c-8.2,0-17.7,1.6-21.2,3.7l-3.8,2.2l-3.8,2.2l0,0c-3.5,2,0.2,3.7,8.4,3.7h23.6l-57,34.7l-120.7,73.5c-2.5,1.5-2.9,2.9-1.6,4.1
			c2,1.9,8.7,3.1,18.7,3.1h130.5c16,0,34.6-3.2,42-7.2l133.5-73.3c-0.1,0-0.2,0-0.2,0h0.1l63.7-34.9h23.6c8.2,0,17.7-1.6,21.2-3.7
			l0,0l3.8-2.2l3.8-2.2c3.5-2-0.2-3.7-8.4-3.7h-50.2c13.1-3.6,30.4-8.2,49.4-12.8c50.4-12.2,90.8-19,113.6-19.2
			c17.9-0.1,27.6,4,29.1,12.2c3.4,19.2-145.7,80.2-289.8,139.3c-86.8,35.5-176.5,72.3-239.9,102.5c-74.1,35.3-101.1,56.3-84.8,66.1
			c9,5.4,25.6,8.1,49.6,8.1c3.8,0,7.7-0.1,11.8-0.2c60.5-2,158.8-19.1,292.1-50.8c97.1-23.1,178.8-46,179.6-46.2
			C2828.8,2539.4,2829.2,2537.3,2823.7,2536.5z M2918.8,2320.8c-6-33.7-154.8,3-221.6,21.3l0,0
			C2763.9,2323.8,2912.8,2287.1,2918.8,2320.8c7.7,43.6-677.1,269.9-615.2,307.1h0.1h-0.1
			C2241.7,2590.8,2926.4,2364.4,2918.8,2320.8z"/>
		<g>
			<g>
				<path fill="#C1C3C7" d="M1946.3,437.1c83.2,174.4-209.5,1080.7-83.2,1229.6c114.9,135.4,323.4-288.4,360.4-366.5
					c-6.7-2.3-14.1,0.8-17.1,7.3c-0.4,0.9-41.7,90.9-98,182c-32.8,53.2-64.2,96.2-93.2,127.8c-34.7,37.9-65.4,58.9-91.2,62.5
					c-19,2.6-35.5-4.6-50.4-22.2c-14.2-16.7-23.2-46.7-26.9-89.4c-3.5-40.2-2.3-90.9,3.6-154.9c11-119.6,37-266.2,62.1-407.9
					c22.4-126.1,43.5-245.2,54.7-346.2c13-116.4,10.3-188.9-8.4-228.2c-20.9-43.9-46.5-65.6-76.1-64.6
					c-33.1,1.1-67.7,31.5-103.1,90.3c-25,41.6-41.2,82.2-41.9,83.9c-2.8,7.1,0.6,15.2,7.8,18
					C1745.4,558.8,1863.1,262.7,1946.3,437.1z"/>
				<path fill="#A7A9AC" d="M2224.8,1300.7c-0.4-0.2-0.8-0.4-1.3-0.5c-36.9,78.1-245.5,501.8-360.4,366.5
					c-126.4-148.9,166.3-1055.1,83.2-1229.6c-83.2-174.4-200.9,121.7-200.9,121.7c7.1,2.8,15.2-0.6,18-7.8
					c0.2-0.4,16.1-40.2,39.9-79.9c29.3-48.8,57.8-76.2,80.3-76.9c17.6-0.6,34.5,15.9,50.2,48.8c36.6,76.8-6.7,321.2-48.6,557.6
					c-25.2,142.3-51.3,289.4-62.4,410.2c-13,141.3-3.5,225.5,29.8,264.8c18.3,21.6,39.7,32.5,63.7,32.5c3.8,0,7.6-0.3,11.5-0.8
					c57.1-7.9,125.8-76.3,204.2-203.2c57.1-92.5,99.2-184.1,99.6-185C2234.8,1312.1,2231.7,1303.9,2224.8,1300.7z"/>
			</g>
			<rect x="927.5" y="365.9" fill="#FFCF87" width="107.1" height="34.6"/>
			<rect x="1093.3" y="357.3" fill="#FFCF87" width="616.4" height="51.8"/>
			<path fill="#BCBEC0" d="M1205.6,507.2v133.5H981V507.2c0-10.3,8.4-18.7,18.7-18.7h187.2C1197.3,488.5,1205.6,496.9,1205.6,507.2z
				"/>
			<rect x="1093.3" y="383.2" fill="#D9B073" width="616.4" height="25.9"/>
			<path opacity="0.5" fill="#6BA5C4" enable-background="new    " d="M1803.2,545.9l-3.7,163.5l-6.6,293.3
				c-0.4,16-13.5,28.8-29.5,28.8H1633c-16,0-29.1-12.8-29.5-28.8l-6.6-294.3l0,0l-3.6-162.6L1803.2,545.9L1803.2,545.9z"/>
			<path fill="#E0B677" d="M1205.6,355.5v55.3c0,13.7-11.1,24.7-24.7,24.7h-175.2c-13.7,0-24.7-11.1-24.7-24.7v-55.3
				c0-13.6,11.1-24.7,24.7-24.7h175.2C1194.6,330.8,1205.6,341.9,1205.6,355.5z"/>
			<rect x="1011.3" y="435.6" fill="#FFCF87" width="164.1" height="52.9"/>
			<path fill="#FFCF87" d="M945.9,363.7v38.9c0,9.8-8,17.8-17.8,17.8h-1.3c-9.8,0-17.8-8-17.8-17.8v-38.9c0-9.8,8-17.8,17.8-17.8
				h1.3C937.9,346,945.9,353.9,945.9,363.7z"/>
			<rect x="1011.3" y="251.2" fill="#BF9B65" width="164.1" height="80.2"/>
			<rect x="1056.6" y="128.1" fill="#BF9B65" width="73.4" height="76.5"/>
			<path fill="#B5B5B5" d="M1266.4,120.4c0,5.6-2.3,10.7-6,14.4s-8.8,6-14.4,6H940.6c-11.2,0-20.3-9.1-20.3-20.3
				c0-5.6,2.3-10.7,6-14.4c3.7-3.7,8.8-6,14.4-6H1246C1257.2,100,1266.4,109.1,1266.4,120.4z"/>
			<path fill="#7CD3D4" d="M1765.2,708.5c-12.1-8-27-10-47.7-4.8v296.5c0,10.6-8.6,19.2-19.2,19.2l0,0c-10.6,0-19.2-8.6-19.2-19.2
				V718.3c-3.3,1.6-6.7,3.3-10.3,5.1c-48.1,24.6-71.2-14-71.8-14.9l6.6,294.3c0.4,16,13.4,28.8,29.5,28.8h130.5
				c16,0,29.1-12.8,29.5-28.8l6.6-293.3C1786.2,713.2,1773,713.6,1765.2,708.5z"/>
			<g>
				<path fill="#939598" d="M1717.4,359.1v344.6c-5.9,1.5-12.3,3.6-19.2,6.3c-6,2.3-12.4,5.1-19.2,8.4V359.1H1717.4z"/>
				<path fill="#728198" d="M1717.4,703.7v296.5c0,10.6-8.6,19.2-19.2,19.2l0,0c-10.6,0-19.2-8.6-19.2-19.2V718.3
					c6.8-3.3,13.2-6,19.2-8.4C1705.2,707.2,1711.5,705.2,1717.4,703.7z"/>
			</g>
			<path fill="#BF9B65" d="M1717.4,219.8v200.7H1679V219.8c0-10.6,8.6-19.2,19.2-19.2l0,0c5.3,0,10.1,2.2,13.6,5.6
				C1715.3,209.6,1717.4,214.4,1717.4,219.8z"/>
			<path fill="#48E65E" d="M1584.5,383.2c0,68-55.1,123-123.1,123c-28.4,0-54.5-9.6-75.3-25.8c-29-22.5-47.7-57.7-47.7-97.3
				c0-68,55.1-123.1,123-123.1c28.5,0,54.7,9.7,75.5,25.9C1565.9,308.6,1584.5,343.7,1584.5,383.2z"/>
			<path opacity="0.1" fill="#231F20" enable-background="new    " d="M1584.5,383.2c0,68-55.1,123-123.1,123
				c-28.4,0-54.5-9.6-75.3-25.8L1537,286.1C1565.9,308.6,1584.5,343.7,1584.5,383.2z"/>
			<path fill="#006838" d="M1461.4,514c-29.3,0-57-9.5-80.1-27.4c-32.2-25-50.7-62.7-50.7-103.4c0-72.1,58.7-130.8,130.8-130.8
				c29.4,0,57.2,9.5,80.3,27.6c32.1,25,50.5,62.6,50.5,103.3C1592.3,455.3,1533.6,514,1461.4,514z M1461.4,267.9
				c-63.6,0-115.3,51.7-115.3,115.3c0,35.9,16.3,69.1,44.7,91.2c20.3,15.8,44.7,24.1,70.6,24.1c63.6,0,115.3-51.7,115.3-115.3
				c0-35.8-16.2-69-44.5-91C1511.8,276.3,1487.4,267.9,1461.4,267.9z"/>
			
				<line fill="none" stroke="#231F20" stroke-width="5.6959" stroke-linecap="round" stroke-miterlimit="10" x1="1461.5" y1="275.4" x2="1461.5" y2="293.7"/>
			
				<line fill="none" stroke="#231F20" stroke-width="5.6959" stroke-linecap="round" stroke-miterlimit="10" x1="1407.5" y1="289.8" x2="1416.7" y2="305.7"/>
			
				<line fill="none" stroke="#231F20" stroke-width="5.6959" stroke-linecap="round" stroke-miterlimit="10" x1="1368.1" y1="329.3" x2="1383.9" y2="338.4"/>
			
				<line fill="none" stroke="#231F20" stroke-width="5.6959" stroke-linecap="round" stroke-miterlimit="10" x1="1353.6" y1="383.2" x2="1371.9" y2="383.2"/>
			
				<line fill="none" stroke="#231F20" stroke-width="5.6959" stroke-linecap="round" stroke-miterlimit="10" x1="1368.1" y1="437.1" x2="1383.9" y2="427.9"/>
			
				<line fill="none" stroke="#231F20" stroke-width="5.6959" stroke-linecap="round" stroke-miterlimit="10" x1="1407.5" y1="476.6" x2="1416.7" y2="460.7"/>
			
				<line fill="none" stroke="#231F20" stroke-width="5.6959" stroke-linecap="round" stroke-miterlimit="10" x1="1461.5" y1="491" x2="1461.5" y2="472.7"/>
			
				<line fill="none" stroke="#231F20" stroke-width="5.6959" stroke-linecap="round" stroke-miterlimit="10" x1="1515.4" y1="476.6" x2="1506.2" y2="460.7"/>
			
				<line fill="none" stroke="#231F20" stroke-width="5.6959" stroke-linecap="round" stroke-miterlimit="10" x1="1554.8" y1="437.1" x2="1539" y2="427.9"/>
			
				<line fill="none" stroke="#231F20" stroke-width="5.6959" stroke-linecap="round" stroke-miterlimit="10" x1="1569.3" y1="383.2" x2="1551" y2="383.2"/>
			
				<line fill="none" stroke="#231F20" stroke-width="5.6959" stroke-linecap="round" stroke-miterlimit="10" x1="1554.8" y1="329.3" x2="1539" y2="338.4"/>
			
				<line fill="none" stroke="#231F20" stroke-width="5.6959" stroke-linecap="round" stroke-miterlimit="10" x1="1515.4" y1="289.8" x2="1506.2" y2="305.7"/>
			<circle fill="#257530" cx="1458.6" cy="383.2" r="20"/>
			<polygon fill="#ED1C24" points="1432.4,404.5 1529.1,309.8 1439.2,411.8 			"/>
			<path fill="#B5B5B5" d="M1750.7,214.2c0,8.4-3.4,15.9-8.9,21.4s-13,8.9-21.4,8.9H1676c-16.7,0-30.3-13.6-30.3-30.3
				c0-8.4,3.4-15.9,8.9-21.4s13.1-8.9,21.4-8.9h44.4C1737.1,183.9,1750.7,197.5,1750.7,214.2z"/>
			<polygon fill="#D4AC70" points="1196.4,177.2 1196.4,220.5 1175.4,251.2 1011.3,251.2 990.2,220.5 990.2,177.2 			"/>
			<path fill="#FFCF87" d="M1750.7,337v92.4c0,14.6-11.9,26.5-26.5,26.5h-51.9c-14.6,0-26.5-11.9-26.5-26.5V337
				c0-14.6,11.9-26.5,26.5-26.5h51.9C1738.8,310.5,1750.7,322.4,1750.7,337z"/>
			<circle fill="#ABE8FF" cx="1645.8" cy="955.5" r="10.5"/>
			<circle fill="#ABE8FF" cx="1645.8" cy="891.2" r="10"/>
			<circle fill="#ABE8FF" cx="1625.2" cy="830.2" r="8.9"/>
			<circle fill="#ABE8FF" cx="1662.9" cy="788.7" r="8.4"/>
			<circle fill="#ABE8FF" cx="1741.6" cy="814.7" r="8.9"/>
			<circle fill="#ABE8FF" cx="1750.7" cy="780.3" r="11.1"/>
			<circle fill="#ABE8FF" cx="1756" cy="731.5" r="5.5"/>
			<circle fill="#ABE8FF" cx="1662.9" cy="747" r="6.6"/>
			<circle fill="#ABE8FF" cx="1625.2" cy="753.7" r="6.6"/>
			<circle fill="#ABE8FF" cx="1656.3" cy="855.7" r="11.1"/>
			<circle fill="#ABE8FF" cx="1732.8" cy="923.3" r="11.1"/>
			<circle fill="#ABE8FF" cx="1761.6" cy="891.2" r="18.8"/>
			<circle fill="#ABE8FF" cx="1774" cy="834.6" r="4.6"/>
			<path fill="#ABE8FF" d="M1780.4,780.3L1780.4,780.3L1780.4,780.3z"/>
			<circle fill="#ABE8FF" cx="1780.4" cy="747" r="6.6"/>
			<circle fill="#ABE8FF" cx="1735.5" cy="716" r="6.1"/>
			<circle fill="#ABE8FF" cx="1755.5" cy="959.3" r="4.8"/>
			<circle fill="#ABE8FF" cx="1743.9" cy="979.3" r="8.9"/>
			<circle fill="#ABE8FF" cx="1735" cy="1007" r="5"/>
			<circle fill="#ABE8FF" cx="1662.9" cy="1007" r="6.6"/>
			<circle fill="#ABE8FF" cx="1634.1" cy="988.2" r="5.5"/>
			<circle fill="#ABE8FF" cx="1621.9" cy="923.3" r="5.5"/>
			<circle fill="#ABE8FF" cx="1662.9" cy="923.3" r="6.6"/>
			<circle fill="#ABE8FF" cx="1635.8" cy="805.8" r="8.3"/>
			<path fill="#D9B073" d="M1034.6,383.2v17.3h-88.7v2.2c0,9.8-8,17.8-17.8,17.8h-1.3c-9.8,0-17.8-8-17.8-17.8v-19.4h125.6V383.2z"
				/>
			<path fill="#39B54A" d="M1419.5,855.2v1773.5c0,149.8-121.5,271.3-271.3,271.3h-109.8c-77.1,0-146.6-32.1-196-83.7
				c-14.4-15-27-31.6-37.6-49.6c-23.9-40.4-37.7-87.6-37.7-138V855.2c0-130.1,91.6-238.9,213.9-265.2c18.5-4,37.7-6.1,57.4-6.1
				h109.8c19.7,0,38.9,2.1,57.4,6.1c111.5,24,197.5,116.5,211.8,231.3c1,7.7,1.6,15.5,1.9,23.4
				C1419.5,848.1,1419.5,851.6,1419.5,855.2z"/>
			<path opacity="0.3" fill="#231F20" enable-background="new    " d="M1205.6,589.9v-82.8c0-10.3-8.4-18.7-18.7-18.7h-11.6v-52.9
				h5.6c13.6,0,24.7-11.1,24.7-24.7v-55.3c0-13.6-11.1-24.7-24.7-24.7h-5.6v-79.7l21.1-30.7v-43.2H1130v-36.5h116
				c5.6,0,10.7-2.3,14.4-6c3.7-3.7,6-8.8,6-14.4c0-11.2-9.1-20.4-20.4-20.4h-151.8v483.8h54C1167.9,583.8,1187.1,585.9,1205.6,589.9
				z"/>
			<path opacity="0.3" fill="#231F20" enable-background="new    " d="M1750.7,337v92.4c0,14.6-11.9,26.5-26.5,26.5h-6.7v544.2
				c0,10.6-8.6,19.2-19.2,19.2l0,0V183.9h22.2c16.7,0,30.3,13.6,30.3,30.3c0,8.4-3.4,15.9-8.9,21.4s-13,8.9-21.4,8.9h-3v66h6.7
				C1738.8,310.5,1750.7,322.4,1750.7,337z"/>
			<path fill="#808285" d="M1841.1,537.2v17.5c0,8.2-6.6,14.8-14.8,14.8h-256.1c-8.2,0-14.8-6.6-14.8-14.8v-17.5
				c0-8.2,6.6-14.8,14.8-14.8h256.1C1834.5,522.3,1841.1,529,1841.1,537.2z"/>
			<g>
				<path fill="#FFFFFF" d="M1100.8,2028.6c66.3,0,101.5,40.3,101.5,89.5c0,50.9-39.4,86.6-97.8,86.6c-61.2,0-101.2-38-101.2-89.5
					C1003.3,2062.6,1043.6,2028.6,1100.8,2028.6z M1103.9,2178.1c41.2,0,78-22.3,78-61.5c0-39.4-36.3-61.7-80-61.7
					c-38.3,0-78.3,20-78.3,61.5C1023.6,2157.5,1061.6,2178.1,1103.9,2178.1z"/>
				<path fill="#FFFFFF" d="M1199.1,1898.5l-42.6,24.6c-16.3,10-26.9,16.3-38,22.3v0.6c11.1,5.4,21.4,10.9,38.3,20.9l42.3,23.2v28.6
					l-97.5-58.9l-95.2,56.6v-29l45.2-25.4c12.6-7.1,22.3-12.6,32.6-17.7v-0.9c-11.4-5.4-20.3-10.3-32.6-17.4l-45.2-26.3v-28.6
					l93.8,58.6l98.9-60L1199.1,1898.5L1199.1,1898.5z"/>
				<path fill="#FFFFFF" d="M1199.1,1796.5h-81.7l-110.9,60.9v-28.3l53.2-27.2c14.6-7.4,26.3-13.1,39.7-19.2v-0.6
					c-12.6-5.4-25.2-12-39.7-19.4l-53.2-27.7v-28.3l110.6,64.6h82V1796.5z"/>
				<path fill="#FFFFFF" d="M1190.5,1548.4c4,11.1,10.6,33.2,10.6,59.2c0,29.2-7.4,53.2-25.4,72c-16,16.6-41.7,26.9-71.7,26.9
					c-57.5-0.3-99.5-39.7-99.5-104.3c0-22.3,4.9-39.7,8.9-48l20.3,6c-4.6,10.3-8.3,23.2-8.3,42.6c0,46.9,29.2,77.5,77.5,77.5
					c48.9,0,77.7-29.4,77.7-74.3c0-16.3-2.3-27.4-5.1-33.2H1118v39.2h-20v-63.6L1190.5,1548.4L1190.5,1548.4z"/>
				<path fill="#FFFFFF" d="M1108.8,1410.6v74.9h69.5V1402h20.9v108.4h-192.7v-104h20.9v79.2h60.9v-74.9L1108.8,1410.6
					L1108.8,1410.6z"/>
				<path fill="#FFFFFF" d="M1199.1,1369.7h-192.7v-27.2l97.5-61.7c22.6-14.3,42.9-25.4,62.6-34.6l-0.3-0.6
					c-25.7,2.3-49.2,2.9-79.2,2.9h-80.6v-23.4h192.7v25.2l-97.8,61.2c-21.4,13.4-43.4,26.3-64.3,36l0.3,0.9c24.3-1.4,47.4-2,79.5-2
					h82.3L1199.1,1369.7L1199.1,1369.7z"/>
			</g>
			<path opacity="0.15" fill="#231F20" enable-background="new    " d="M1419.5,855.2v1773.5c0,149.8-121.5,271.3-271.3,271.3
				h-109.8c-77.1,0-146.6-32.1-196-83.7c380-530.4,526.3-1537.2,575-1995c1,7.7,1.6,15.5,1.9,23.4
				C1419.5,848.1,1419.5,851.6,1419.5,855.2z"/>
			<path fill="#5A5B5C" d="M1841.1,545.9v8.7c0,8.2-6.6,14.8-14.8,14.8h-256.1c-8.2,0-14.8-6.6-14.8-14.8v-8.7H1841.1z"/>
			
				<ellipse transform="matrix(-0.7071 0.7071 -0.7071 -0.7071 2056.1841 580.2534)" fill="#85FF95" cx="907.9" cy="716" rx="116.1" ry="35.7"/>
			<path fill="#85FF95" d="M863.1,1652L863.1,1652c-11.4,0-20.7-9.3-20.7-20.7V901.9c0-11.4,9.3-20.7,20.7-20.7l0,0
				c11.4,0,20.7,9.3,20.7,20.7v729.4C883.8,1642.7,874.5,1652,863.1,1652z"/>
			<path fill="#67D476" d="M863.1,2684L863.1,2684c-11.4,0-20.7-9.3-20.7-20.7v-768.8c0-11.4,9.3-20.7,20.7-20.7l0,0
				c11.4,0,20.7,9.3,20.7,20.7v768.8C883.8,2674.7,874.5,2684,863.1,2684z"/>
			<path fill="#56E86A" d="M863.1,1838.2L863.1,1838.2c-11.4,0-20.7-9.3-20.7-20.7v-90.3c0-11.4,9.3-20.7,20.7-20.7l0,0
				c11.4,0,20.7,9.3,20.7,20.7v90.3C883.8,1828.9,874.5,1838.2,863.1,1838.2z"/>
		</g>
	</g>
	<path fill="#56E86A" d="M1263.2,109.3"/>
</g>
</svg>
